# xmcd CD database file
#
# Track frame offsets:
#	150
#	26647
#	42713
#	52135
#	67929
#	83424
#	111802
#	132444
#	152169
#	184329
#	203069
#	234967
#
# Disc length: 3407 seconds
#
# Revision: 1
# Processed by: cddbd v1.5.1PL2 Copyright (c) Steve Scherf et al.
# Submitted via: CDex 1.51
#
DISCID=a20d4d0c
DTITLE=Policy of 3 - An Anthology - Disc One
DYEAR=2004
DGENRE=Punk
TTITLE0=Nine Years Old
TTITLE1=Canyon
TTITLE2=Jet Black
TTITLE3=1%
TTITLE4=Drone
TTITLE5=Mind Over Matter
TTITLE6=44 to Go
TTITLE7=Of the Wolf
TTITLE8=Space Cadet
TTITLE9=Let it Build
TTITLE10=Autronic Eye
TTITLE11=Twelve Years Down
EXTD=YEAR: 2004
EXTT0=
EXTT1=
EXTT2=
EXTT3=
EXTT4=
EXTT5=
EXTT6=
EXTT7=
EXTT8=
EXTT9=
EXTT10=
EXTT11=
PLAYORDER=
